<svg width="1200" height="760" viewBox="0 0 1200 760" fill="none" xmlns="http://www.w3.org/2000/svg" role="img" aria-labelledby="title desc">
  <title id="title">RouteMind 智行策 utility toolbar prototype</title>
  <desc id="desc">Desktop prototype focused on language switch, map controls, route compare, and export actions.</desc>
  <rect width="1200" height="760" fill="#F4F7F6"/>
  <rect x="24" y="20" width="1152" height="720" rx="28" fill="#FFFFFF" stroke="#DDE7E3"/>

  <rect x="48" y="48" width="260" height="664" rx="20" fill="#F8FBFA" stroke="#DDE7E3"/>
  <text x="72" y="86" fill="#12332C" font-family="Arial, sans-serif" font-size="22" font-weight="700">RouteMind 智行策</text>
  <text x="72" y="111" fill="#667A74" font-family="Arial, sans-serif" font-size="12">工具化路线规划</text>
  <rect x="72" y="134" width="212" height="38" rx="19" fill="#E9F3F0"/>
  <rect x="78" y="140" width="98" height="26" rx="13" fill="#12332C"/>
  <text x="113" y="158" fill="#FFFFFF" font-family="Arial, sans-serif" font-size="12" font-weight="700">中文</text>
  <text x="202" y="158" fill="#4E6660" font-family="Arial, sans-serif" font-size="12" font-weight="700">EN</text>
  <rect x="72" y="192" width="212" height="96" rx="14" fill="#FFFFFF" stroke="#DDE7E3"/>
  <text x="92" y="220" fill="#12332C" font-family="Arial, sans-serif" font-size="13" font-weight="700">输入助手</text>
  <text x="92" y="244" fill="#667A74" font-family="Arial, sans-serif" font-size="12">示例 / 最近输入 / 清空</text>
  <text x="92" y="266" fill="#667A74" font-family="Arial, sans-serif" font-size="12">自动识别中英文输入</text>
  <rect x="72" y="308" width="212" height="142" rx="14" fill="#FFFFFF" stroke="#DDE7E3"/>
  <text x="92" y="336" fill="#12332C" font-family="Arial, sans-serif" font-size="13" font-weight="700">约束快捷编辑</text>
  <rect x="92" y="354" width="74" height="28" rx="14" fill="#E9F3F0"/><text x="111" y="373" fill="#12332C" font-family="Arial" font-size="12">3km</text>
  <rect x="174" y="354" width="74" height="28" rx="14" fill="#E9F3F0"/><text x="194" y="373" fill="#12332C" font-family="Arial" font-size="12">4h</text>
  <rect x="92" y="392" width="74" height="28" rx="14" fill="#E9F3F0"/><text x="109" y="411" fill="#12332C" font-family="Arial" font-size="12">步行</text>
  <rect x="174" y="392" width="74" height="28" rx="14" fill="#E9F3F0"/><text x="193" y="411" fill="#12332C" font-family="Arial" font-size="12">少走</text>
  <rect x="72" y="604" width="212" height="42" rx="14" fill="#12A37F"/>
  <text x="138" y="631" fill="#FFFFFF" font-family="Arial, sans-serif" font-size="14" font-weight="700">重新规划</text>
  <text x="72" y="680" fill="#667A74" font-family="Arial, sans-serif" font-size="12">隐私控制：定位仅本次使用</text>

  <rect x="332" y="48" width="528" height="664" rx="20" fill="#EAF0ED" stroke="#D6E0DC"/>
  <path d="M360 212C454 158 512 226 604 166C704 102 758 188 834 130" stroke="#D7E1DD" stroke-width="16" stroke-linecap="round"/>
  <path d="M370 568C488 500 598 592 738 510C784 484 812 488 838 472" stroke="#D7E1DD" stroke-width="12" stroke-linecap="round"/>
  <path d="M400 458L492 354L608 416L706 308L806 386" stroke="#12A37F" stroke-width="7" stroke-linecap="round" stroke-linejoin="round"/>
  <circle cx="400" cy="458" r="13" fill="#12332C" stroke="#fff" stroke-width="4"/>
  <circle cx="492" cy="354" r="14" fill="#2D6CDF" stroke="#fff" stroke-width="4"/>
  <circle cx="608" cy="416" r="14" fill="#EF7D38" stroke="#fff" stroke-width="4"/>
  <circle cx="706" cy="308" r="14" fill="#12A37F" stroke="#fff" stroke-width="4"/>
  <circle cx="806" cy="386" r="14" fill="#8B5CF6" stroke="#fff" stroke-width="4"/>

  <rect x="356" y="72" width="220" height="42" rx="21" fill="#FFFFFF" stroke="#DDE7E3"/>
  <text x="378" y="98" fill="#12332C" font-family="Arial, sans-serif" font-size="13" font-weight="700">春熙路 3km · 16:00</text>
  <rect x="592" y="72" width="244" height="42" rx="21" fill="#FFFFFF" stroke="#DDE7E3"/>
  <text x="614" y="98" fill="#12332C" font-family="Arial, sans-serif" font-size="13" font-weight="700">图层：路线 / 拥挤 / 营业</text>
  <rect x="784" y="156" width="44" height="148" rx="22" fill="#FFFFFF" stroke="#DDE7E3"/>
  <text x="799" y="188" fill="#12332C" font-family="Arial, sans-serif" font-size="20" font-weight="700">+</text>
  <line x1="796" y1="210" x2="816" y2="210" stroke="#DDE7E3"/>
  <text x="802" y="244" fill="#12332C" font-family="Arial, sans-serif" font-size="20" font-weight="700">-</text>
  <line x1="796" y1="264" x2="816" y2="264" stroke="#DDE7E3"/>
  <text x="796" y="288" fill="#12332C" font-family="Arial, sans-serif" font-size="12" font-weight="700">归中</text>
  <rect x="356" y="638" width="264" height="42" rx="21" fill="#FFFFFF" stroke="#DDE7E3"/>
  <text x="378" y="664" fill="#12332C" font-family="Arial, sans-serif" font-size="13" font-weight="700">悬浮提示：点击地点查看原因</text>

  <rect x="884" y="48" width="268" height="664" rx="20" fill="#F8FBFA" stroke="#DDE7E3"/>
  <text x="908" y="86" fill="#12332C" font-family="Arial, sans-serif" font-size="20" font-weight="700">方案对比</text>
  <rect x="908" y="112" width="220" height="66" rx="14" fill="#12332C"/>
  <text x="928" y="140" fill="#FFFFFF" font-family="Arial, sans-serif" font-size="14" font-weight="700">紧凑高效</text>
  <text x="928" y="162" fill="#CFE2DD" font-family="Arial, sans-serif" font-size="12">5点 · 3h52m · 少走 18%</text>
  <rect x="908" y="190" width="220" height="66" rx="14" fill="#FFFFFF" stroke="#DDE7E3"/>
  <text x="928" y="218" fill="#12332C" font-family="Arial, sans-serif" font-size="14" font-weight="700">休闲慢游</text>
  <text x="928" y="240" fill="#667A74" font-family="Arial, sans-serif" font-size="12">4点 · 3h40m · 更松弛</text>
  <rect x="908" y="268" width="220" height="66" rx="14" fill="#FFFFFF" stroke="#DDE7E3"/>
  <text x="928" y="296" fill="#12332C" font-family="Arial, sans-serif" font-size="14" font-weight="700">美食探店</text>
  <text x="928" y="318" fill="#667A74" font-family="Arial, sans-serif" font-size="12">餐饮优先 · 99% 利用率</text>
  <text x="908" y="376" fill="#12332C" font-family="Arial, sans-serif" font-size="15" font-weight="700">快捷动作</text>
  <rect x="908" y="394" width="104" height="38" rx="19" fill="#E9F3F0"/><text x="935" y="419" fill="#12332C" font-family="Arial" font-size="12" font-weight="700">复制</text>
  <rect x="1024" y="394" width="104" height="38" rx="19" fill="#E9F3F0"/><text x="1051" y="419" fill="#12332C" font-family="Arial" font-size="12" font-weight="700">导出</text>
  <rect x="908" y="444" width="104" height="38" rx="19" fill="#E9F3F0"/><text x="936" y="469" fill="#12332C" font-family="Arial" font-size="12" font-weight="700">收藏</text>
  <rect x="1024" y="444" width="104" height="38" rx="19" fill="#E9F3F0"/><text x="1051" y="469" fill="#12332C" font-family="Arial" font-size="12" font-weight="700">分享</text>
  <rect x="908" y="524" width="220" height="118" rx="16" fill="#EEF8F5" stroke="#D7EBE4"/>
  <text x="928" y="552" fill="#12332C" font-family="Arial, sans-serif" font-size="14" font-weight="700">可解释摘要</text>
  <text x="928" y="578" fill="#0B765E" font-family="Arial, sans-serif" font-size="12">营业中 · 少折返 · 类型多样</text>
  <text x="928" y="602" fill="#0B765E" font-family="Arial, sans-serif" font-size="12">游客模式命中景点 + 火锅</text>
</svg>
